<?xml version="1.0" encoding="UTF-8"?>
<svg version="1.1" viewBox="0 0 300 282" xmlns="http://www.w3.org/2000/svg">
<path d="m44.384 57.44 10.35 12.043-13.433 11.71 13.867 16.675 13.809-11.826 7.6573 8.931 2.5186 3.3148-13.071 12.723 13.447 16.154 21.191-18.875-61.634-75.11-22.335 18.499 14.345 17.225zm138.05 82.623c-4.8346 3.6331-11.102 4.0529-16.197 1.6067l22.364-15.966c0.59384 5.3557-1.5488 10.9-6.1663 14.359m-3.3003-26.996-21.611 17.124c-0.95535-5.6018 1.1725-11.565 6.036-15.213 4.6464-3.4884 10.581-4.0241 15.575-1.9107m16.357-48.187c0-1.4909 1.2014-2.6923 2.6778-2.6923 1.491 0 2.6923 1.2015 2.6923 2.6923 0 1.462-1.2014 2.6779-2.6923 2.6779-1.4764 0-2.6778-1.2159-2.6778-2.6779m-47.738 94.232c-0.60795 3.2714-2.3884 6.3834-5.2688 8.5258-4.3135 3.2423-9.9008 3.5608-14.417 1.3027l17.5-12.492zm-10.509-12.825-16.501 13.085c-0.99877-5.0227 0.83918-10.436 5.2255-13.722 2.5475-1.9107 5.5584-2.7936 8.5112-2.7212zm-34.363 48.824c-3.8358 2.895-8.8442 3.1121-12.839 0.98466l17.457-12.463c0.69479 4.2556-0.94123 8.7139-4.6175 11.479m-1.7514-20.178-17.008 13.491c-1.1146-4.5016 0.50698-9.4376 4.4293-12.39 3.7635-2.8082 8.6415-3.0832 12.579-1.1001m98.241 59.419c1.2159-1.0563 2.5765-1.8673 4.0095-2.4318 3.778-1.8962 7.1216-2.9963 9.9877-3.5898 0.31808-0.0543 0.62206-0.11616 0.92603-0.17369 2.0265-0.39083 3.503-0.8826 4.603-1.3896 0.62205-0.99876 1.2738-2.4028 1.9397-4.3569 0.0977-0.30397 0.18782-0.59383 0.28987-0.8978 0.94122-2.7792 2.4462-5.9636 4.8057-9.4522 0.75233-1.375 1.7224-2.6055 2.9529-3.6766 6.1952-5.4571 16.082-4.299 22.103 2.5331 3.6477 4.1398 5.0373 9.4232 4.2122 14.171-0.47766 3.7057-2.7792 18.542-10.161 27.314-0.60795 0.88261-1.3462 1.5488-1.3462 1.5488-0.15959 0.14439-0.34739 0.28987-0.52109 0.42014-0.15959 0.15959-0.31809 0.31809-0.49179 0.46356 0 0-0.75234 0.66548-1.6791 1.129-9.6693 6.2242-24.68 6.6295-28.414 6.6006-4.7913 0.24644-9.8574-1.8094-13.505-5.9492-6.0216-6.8321-5.8913-16.805 0.28986-22.262m38.633-112.34c0-1.5053 1.187-2.7068 2.6923-2.7068 1.4764 0 2.6779 1.2015 2.6779 2.7068 0 1.4764-1.2014 2.6779-2.6779 2.6779-1.5053 0-2.6923-1.2015-2.6923-2.6779m51.893-31.121s-0.63726-3.2569-14.041-4.0819c0 0-14.388-3.0832-10.682-17.428l0.0434-0.09771c5.0662 2.7503 10.769 2.8806 14.88-0.18781 6.1518-4.6175 6.3979-14.634 0.56452-22.407-5.8335-7.7586-15.546-10.306-21.669-5.7031-4.0531 3.0542-5.5295 8.4678-4.3859 14.041-14.576-0.55041-13.563-15.112-13.563-15.112 2.9529-13.1 0-14.591 0-14.591-5.1096-16.415-27.169-17.573-27.169-17.573-4.3859-0.85438-14.055-2.2291-14.055-2.2291-7.2519-1.8817-23.348-3.3003-23.348-3.3003-5.1096-0.28986-11.015-1.9541-11.015-1.9541-2.2871-0.65137-2.7647 0.086846-2.7647 0.086846 0.39083 1.7804 3.8504 3.8792 3.8504 3.8792 14.287 8.0336 26.185 8.8586 26.185 8.8586 8.4533-0.50698 10.002 4.4873 10.002 4.4873-7.2375-1.3896-13.824-0.37671-13.824-0.37671-5.7176 1.5489-0.36151 3.5898-0.36151 3.5898 5.5438 1.1435 19.512 6.586 19.512 6.586-5.2254 0.95534-8.9165 2.5186-8.9165 2.5186-5.3412 1.9252-3.4017 2.9384-3.4017 2.9384 5.2255 0.20301 18.05 2.9239 18.05 2.9239-7.1216 1.158-8.41 5.4137-8.41 5.4137 5.5584-1.3462 10.48 1.6212 10.48 1.6212-3.3148 0.75233-3.8359 3.7345-3.8359 3.7345 5.5439-0.60795 10.682 0.96946 10.682 0.96946-6.948 2.9818-3.7345 5.2688-3.7345 5.2688 2.8806 0.07599 7.0348 1.462 7.0348 1.462 3.8504 1.4475 1.795 5.0373 1.795 5.0373-1.2739-2.4173-3.9662-1.6067-3.9662-1.6067-3.7924 3.8503-0.18781 8.5836-0.18781 8.5836 1.4186 2.1568 1.4041 5.0228 1.4041 5.0228-0.59383 3.7924-1.9397 6.3256-3.228 7.9467l-31.57 25.042c-10.48-22.509-0.94123-34.45-0.94123-34.45 2.3739-3.4884 4.4293-0.3474 4.4293-0.3474 1.4186 1.9541 4.0385 3.9951 4.0385 3.9951 5.3702 1.1725 6.34-3.6043 6.34-3.6043 2.9384-10.277-6.1229-15.893-6.1229-15.893-14.243-8.3086-22.697 5.2544-22.697 5.2544-9.1772 12.926-3.3437 34.103-1.6357 39.459-0.0868 0-0.17369-0.01085-0.23123-0.01085-12.608-0.18781-23.42 7.7152-27.546 18.904l-92.929-112.47-18.485 15.792 89.991 109.82c-10.364 3.8938-17.79 13.809-17.963 25.548-0.0543 4.0819 0.78164 7.9613 2.3015 11.479-3.5753-2.6345-7.9757-4.2122-12.752-4.2846-12.246-0.1737-22.291 9.5969-22.465 21.799-0.07601 3.5464 0.7241 6.8901 2.1422 9.8574l-75.4 59.81c-1.5633 4.2412 3.0542 3.0832 3.0542 3.0832l77.89-55.627c3.7924 3.2714 8.7284 5.2834 14.127 5.3702 12.246 0.17369 22.277-9.5969 22.465-21.828 0.0434-2.7792-0.44836-5.457-1.3462-7.9177 4.7043 3.9082 10.711 6.2966 17.312 6.3979 10.075 0.14439 18.962-5.0951 23.927-13.056l34.61 42.238c-0.15959 0.1444-0.31808 0.27467-0.49178 0.43425-7.8743 6.9335-12.825 15.763-14.576 24.651-0.28986 10.639 3.0686 21.032 10.277 29.21 1.5633 1.795 3.2858 3.4017 5.0807 4.8491 17.095 13.708 43.758 12.246 62.734-4.4728 18.991-16.704 23.811-42.962 12.39-61.663-1.2159-1.9685-2.6055-3.8648-4.1832-5.6597-7.2085-8.1783-17.066-12.81-27.662-13.896-8.352 0.59384-17.008 3.8504-24.492 9.843l-33.77-40.834c11.146-1.8093 20.164-10.002 23.16-20.728 4.8924 3.2424 23.363 14.475 38.199 9.2785 0 0 15.358-4.328 11.348-20.279 0 0-2.866-10.306-13.563-10.364 0 0-4.8346-0.37671-5.2254 5.0951 0 0 1.2593 3.1122 2.7068 5.0084 0 0 2.4752 2.8515-1.5487 4.1398 0 0-13.925 5.8045-32.453-10.147-0.0543-0.1878-0.13027-0.3767-0.20301-0.5504l31.903-22.769c1.8962-0.94123 4.936-1.8094 9.2929-1.2449 0 0 2.7502 0.76753 4.4293 2.7358 0 0 3.5608 4.7767 8.3231 2.2147 0 0 1.5053-2.3738-0.46356-4.2556 0 0 4.0095-0.96946 4.3425 3.1121 0 0 0.17369 4.4003-0.55041 7.2085 0 0 1.2882 3.7055 6.1083-2.1568 0 0 0.0868 5.3847-2.041 10.538 0 0 2.9963 0.3474 4.632-2.6635 0 0 1.4909 5.5874-1.3606 10.538 0 0 4.4728-0.076 7.5559-6.5716 0 0-0.96946 13.085-2.2292 18.152 0 0 0.43425 2.1422 3.7925-2.4608 0 0 2.5041-3.0976 4.878-7.8454 0 0 1.3462 14.924 0.8978 20.554 0 0 0.46357 5.7175 3.5608 0.65137 0 0 2.8082-6.036 3.474-13.36 0 0 4.3859 2.866 1.5199 10.842 0 0-2.5042 11.652 1.2303 27.618 0 0 1.0563 3.9082 2.6345 4.7912 0 0 0.83919-0.23123 0.86849-2.6345 0 0 0.076-6.1518 1.2015-11.131 0 0 3.112-15.879 3.3147-23.334 0 0 1.3752-9.6693 1.7948-14.099 0 0 5.0228-21.539-9.3073-31.02" fill="#ffd42a"/>
</svg>
